<svg width="68" height="44" viewBox="0 0 68 44" fill="none" xmlns="http://www.w3.org/2000/svg" xmlns:xlink="http://www.w3.org/1999/xlink">
<path d="M3.601,18.58C1.944,18.58 0.601,19.923 0.601,21.58C0.601,23.237 1.944,24.58 3.601,24.58L3.601,18.58ZM66.245,23.701C67.417,22.53 67.417,20.63 66.245,19.458L47.154,0.367C45.982,-0.805 44.082,-0.805 42.911,0.367C41.739,1.538 41.739,3.438 42.911,4.609L59.881,21.58L42.911,38.55C41.739,39.722 41.739,41.621 42.911,42.793C44.082,43.965 45.982,43.965 47.154,42.793L66.245,23.701ZM3.601,24.58L64.124,24.58L64.124,18.58L3.601,18.58L3.601,24.58Z" transform="rotate(1.999 33.863 21.58)" fill="#FFFFFF"/>
</svg>
