<svg width="88" height="46" viewBox="0 0 88 46" fill="none" xmlns="http://www.w3.org/2000/svg" xmlns:xlink="http://www.w3.org/1999/xlink">
<path d="M2,19.585C0.343,19.585 -1,20.928 -1,22.585C-1,24.242 0.343,25.585 2,25.585L2,19.585ZM86.121,24.706C87.293,23.535 87.293,21.635 86.121,20.464L67.029,1.372C65.858,0.2 63.958,0.2 62.787,1.372C61.615,2.543 61.615,4.443 62.787,5.614L79.757,22.585L62.787,39.556C61.615,40.727 61.615,42.627 62.787,43.798C63.958,44.97 65.858,44.97 67.029,43.798L86.121,24.706ZM2,25.585L84,25.585L84,19.585L2,19.585L2,25.585Z" transform="rotate(-360 43 43.585)" fill="#FFFFFF"/>
</svg>
