<svg width="186" height="182" viewBox="0 0 186 182" fill="none" xmlns="http://www.w3.org/2000/svg" xmlns:xlink="http://www.w3.org/1999/xlink">
<rect  x="16.691" y="14.553" width="150.377" height="150.377" fill="#343232"/>
<rect  x="-0.278" y="164.391" width="37.033" height="15.074" rx="1.615" transform="rotate(-180 -0.278 164.391)" fill="#FFFFFF" fill-opacity="0.8" stroke="#8F8F8F" stroke-width="0.538" stroke-miterlimit="3.999327"/>
<rect  x="-0.278" y="90.233" width="37.033" height="15.074" rx="1.615" transform="rotate(-180 -0.278 90.233)" fill="#FFFFFF" fill-opacity="0.8" stroke="#8F8F8F" stroke-width="0.538" stroke-miterlimit="3.999327"/>
<rect  x="-0.278" y="127.312" width="37.033" height="15.074" rx="1.615" transform="rotate(-180 -0.278 127.312)" fill="#D9D9D9" fill-opacity="0.3" stroke="#8F8F8F" stroke-width="0.538" stroke-miterlimit="3.999327"/>
<rect  x="-0.278" y="53.154" width="37.033" height="15.074" rx="1.615" transform="rotate(-180 -0.278 53.154)" fill="#D9D9D9" fill-opacity="0.3" stroke="#8F8F8F" stroke-width="0.538" stroke-miterlimit="3.999327"/>
<rect  x="168.636" y="164.391" width="37.033" height="15.074" rx="1.615" transform="rotate(-180 168.636 164.391)" fill="#FFFFFF" fill-opacity="0.8" stroke="#8F8F8F" stroke-width="0.538" stroke-miterlimit="3.999327"/>
<rect  x="168.636" y="90.233" width="37.033" height="15.074" rx="1.615" transform="rotate(-180 168.636 90.233)" fill="#FFFFFF" fill-opacity="0.8" stroke="#8F8F8F" stroke-width="0.538" stroke-miterlimit="3.999327"/>
<rect  x="168.636" y="127.312" width="37.033" height="15.074" rx="1.615" transform="rotate(-180 168.636 127.312)" fill="#D9D9D9" fill-opacity="0.3" stroke="#8F8F8F" stroke-width="0.538" stroke-miterlimit="3.999327"/>
<rect  x="168.636" y="53.154" width="37.033" height="15.074" rx="1.615" transform="rotate(-180 168.636 53.154)" fill="#D9D9D9" fill-opacity="0.3" stroke="#8F8F8F" stroke-width="0.538" stroke-miterlimit="3.999327"/>
<rect  x="16.691" y="-0.897" width="37.033" height="15.074" rx="1.615" fill="#FFFFFF" fill-opacity="0.8" stroke="#8F8F8F" stroke-width="0.538" stroke-miterlimit="3.999327"/>
<rect  x="90.852" y="-0.897" width="37.033" height="15.074" rx="1.615" fill="#FFFFFF" fill-opacity="0.8" stroke="#8F8F8F" stroke-width="0.538" stroke-miterlimit="3.999327"/>
<rect  x="53.77" y="-0.897" width="37.033" height="15.074" rx="1.615" fill="#D9D9D9" fill-opacity="0.3" stroke="#8F8F8F" stroke-width="0.538" stroke-miterlimit="3.999327"/>
<rect  x="127.93" y="-0.897" width="37.033" height="15.074" rx="1.615" fill="#D9D9D9" fill-opacity="0.3" stroke="#8F8F8F" stroke-width="0.538" stroke-miterlimit="3.999327"/>
</svg>
