<svg width="186" height="182" viewBox="0 0 186 182" fill="none" xmlns="http://www.w3.org/2000/svg" xmlns:xlink="http://www.w3.org/1999/xlink">
<rect  x="167.613" y="165.63" width="150.377" height="150.377" transform="rotate(-360 167.613 165.63)" fill="#343232"/>
<rect  x="184.587" y="15.791" width="37.033" height="15.074" rx="1.615" transform="rotate(180 184.587 15.791)" fill="#FFFFFF" fill-opacity="0.8" stroke="#8F8F8F" stroke-width="0.538" stroke-miterlimit="3.999327"/>
<rect  x="184.587" y="89.95" width="37.033" height="15.074" rx="1.615" transform="rotate(180 184.587 89.95)" fill="#FFFFFF" fill-opacity="0.8" stroke="#8F8F8F" stroke-width="0.538" stroke-miterlimit="3.999327"/>
<rect  x="184.587" y="52.87" width="37.033" height="15.074" rx="1.615" transform="rotate(180 184.587 52.87)" fill="#D9D9D9" fill-opacity="0.3" stroke="#8F8F8F" stroke-width="0.538" stroke-miterlimit="3.999327"/>
<rect  x="184.587" y="127.029" width="37.033" height="15.074" rx="1.615" transform="rotate(180 184.587 127.029)" fill="#D9D9D9" fill-opacity="0.3" stroke="#8F8F8F" stroke-width="0.538" stroke-miterlimit="3.999327"/>
<rect  x="166.048" y="14.714" width="37.033" height="15.074" rx="1.615" transform="rotate(-360 166.048 14.714)" fill="#FFFFFF" fill-opacity="0.8" stroke="#8F8F8F" stroke-width="0.538" stroke-miterlimit="3.999327"/>
<rect  x="91.887" y="14.714" width="37.033" height="15.074" rx="1.615" transform="rotate(-360 91.887 14.714)" fill="#FFFFFF" fill-opacity="0.8" stroke="#8F8F8F" stroke-width="0.538" stroke-miterlimit="3.999327"/>
<rect  x="128.966" y="14.714" width="37.033" height="15.074" rx="1.615" transform="rotate(-360 128.966 14.714)" fill="#D9D9D9" fill-opacity="0.3" stroke="#8F8F8F" stroke-width="0.538" stroke-miterlimit="3.999327"/>
<rect  x="54.809" y="14.714" width="37.033" height="15.074" rx="1.615" transform="rotate(-360 54.809 14.714)" fill="#D9D9D9" fill-opacity="0.3" stroke="#8F8F8F" stroke-width="0.538" stroke-miterlimit="3.999327"/>
<rect  x="167.075" y="180.541" width="37.033" height="15.074" rx="1.615" transform="rotate(-360 167.075 180.541)" fill="#FFFFFF" fill-opacity="0.8" stroke="#8F8F8F" stroke-width="0.538" stroke-miterlimit="3.999327"/>
<rect  x="92.919" y="180.541" width="37.033" height="15.074" rx="1.615" transform="rotate(-360 92.919 180.541)" fill="#FFFFFF" fill-opacity="0.8" stroke="#8F8F8F" stroke-width="0.538" stroke-miterlimit="3.999327"/>
<rect  x="129.997" y="180.541" width="37.033" height="15.074" rx="1.615" transform="rotate(-360 129.997 180.541)" fill="#D9D9D9" fill-opacity="0.3" stroke="#8F8F8F" stroke-width="0.538" stroke-miterlimit="3.999327"/>
<rect  x="55.837" y="180.541" width="37.033" height="15.074" rx="1.615" transform="rotate(-360 55.837 180.541)" fill="#D9D9D9" fill-opacity="0.3" stroke="#8F8F8F" stroke-width="0.538" stroke-miterlimit="3.999327"/>
</svg>
