<svg width="126" height="110" viewBox="0 0 126 110" fill="none" xmlns="http://www.w3.org/2000/svg" xmlns:xlink="http://www.w3.org/1999/xlink">
<path d="M126,54.585C126,84.408 97.794,108.585 63,108.585C28.206,108.585 0,84.408 0,54.585C0,24.762 28.206,0.585 63,0.585C97.794,0.585 126,24.762 126,54.585Z" fill="#D9D9D9" fill-opacity="0.1"/>
<g filter="url(#filterI1_638;66_2525)">
<path d="M32.25,32.085C28.936,32.085 26.25,34.771 26.25,38.085L26.25,69.79C26.25,73.103 28.936,75.79 32.25,75.79L36.587,75.79L32.783,83.722C32.705,83.885 32.907,84.037 33.084,83.95L49.655,75.79L93.75,75.79C97.064,75.79 99.75,73.103 99.75,69.79L99.75,38.085C99.75,34.771 97.064,32.085 93.75,32.085L32.25,32.085Z" clip-rule="evenodd" fill-rule="evenodd" fill="#D9D9D9"/>
</g>
<defs>
<filter id="filterI1_638;66_2525" x="24.25" y="30.084961" width="40.750004" height="29.945198" filterUnits="userSpaceOnUse" color-interpolation-filters="sRGB">
<feFlood flood-opacity="0" result="BackgroundImageFix"/>
<feColorMatrix in="SourceAlpha" type="matrix" values="0 0 0 0 0 0 0 0 0 0 0 0 0 0 0 0 0 0 127 0" result="hardAlpha"/>
<feMorphology radius="0" operator="dilate" in="SourceAlpha" result="0dropshadow"/>
<feOffset dx="2" dy="2"/>
<feGaussianBlur stdDeviation="1"/>
<feComposite in2="hardAlpha" operator="out"/>
<feColorMatrix type="matrix" values="0 0 0 0 0 0 0 0 0 0 0 0 0 0 0 0 0 0 0.84 0"/>
<feBlend mode="normal" in2="BackgroundImageFix" result="0dropshadow"/>
<feBlend mode="normal" in="SourceGraphic" in2="0dropshadow" result="shape"/>
</filter>
</defs>
</svg>
