<svg width="100" height="88" viewBox="0 0 100 88" fill="none" xmlns="http://www.w3.org/2000/svg" xmlns:xlink="http://www.w3.org/1999/xlink">
<path d="M100,44.156C100,68.22 77.614,87.728 50,87.728C22.386,87.728 0,68.22 0,44.156C0,20.093 22.386,0.585 50,0.585C77.614,0.585 100,20.093 100,44.156Z" fill="#545353"/>
<path d="M60.714,35.281C60.714,41.074 55.518,45.77 49.107,45.77C42.697,45.77 37.5,41.074 37.5,35.281C37.5,29.488 42.697,24.791 49.107,24.791C55.518,24.791 60.714,29.488 60.714,35.281Z" fill="#D9D9D9"/>
<path d="M69.642,66.749C69.642,78.335 60.448,87.728 49.106,87.728C37.764,87.728 28.57,78.335 28.57,66.749C28.57,55.163 37.764,45.77 49.106,45.77C60.448,45.77 69.642,55.163 69.642,66.749Z" fill="#D9D9D9"/>
</svg>
