<svg width="186" height="182" viewBox="0 0 186 182" fill="none" xmlns="http://www.w3.org/2000/svg" xmlns:xlink="http://www.w3.org/1999/xlink">
<rect  x="17.754" y="14.484" width="150.377" height="150.377" fill="#343232"/>
<rect  x="0.784" y="164.323" width="37.033" height="15.074" rx="1.615" transform="rotate(-180 0.784 164.323)" fill="#FFFFFF" fill-opacity="0.8" stroke="#8F8F8F" stroke-width="0.538" stroke-miterlimit="3.999327"/>
<rect  x="0.784" y="90.164" width="37.033" height="15.074" rx="1.615" transform="rotate(-180 0.784 90.164)" fill="#FFFFFF" fill-opacity="0.8" stroke="#8F8F8F" stroke-width="0.538" stroke-miterlimit="3.999327"/>
<rect  x="0.784" y="127.244" width="37.033" height="15.074" rx="1.615" transform="rotate(-180 0.784 127.244)" fill="#D9D9D9" fill-opacity="0.3" stroke="#8F8F8F" stroke-width="0.538" stroke-miterlimit="3.999327"/>
<rect  x="0.784" y="53.085" width="37.033" height="15.074" rx="1.615" transform="rotate(-180 0.784 53.085)" fill="#D9D9D9" fill-opacity="0.3" stroke="#8F8F8F" stroke-width="0.538" stroke-miterlimit="3.999327"/>
<rect  x="18.785" y="164.861" width="37.033" height="15.074" rx="1.615" fill="#FFFFFF" fill-opacity="0.8" stroke="#8F8F8F" stroke-width="0.538" stroke-miterlimit="3.999327"/>
<rect  x="92.945" y="164.861" width="37.033" height="15.074" rx="1.615" fill="#FFFFFF" fill-opacity="0.8" stroke="#8F8F8F" stroke-width="0.538" stroke-miterlimit="3.999327"/>
<rect  x="55.863" y="164.861" width="37.033" height="15.074" rx="1.615" fill="#D9D9D9" fill-opacity="0.3" stroke="#8F8F8F" stroke-width="0.538" stroke-miterlimit="3.999327"/>
<rect  x="130.023" y="164.861" width="37.033" height="15.074" rx="1.615" fill="#D9D9D9" fill-opacity="0.3" stroke="#8F8F8F" stroke-width="0.538" stroke-miterlimit="3.999327"/>
<rect  x="17.754" y="-0.965" width="37.033" height="15.074" rx="1.615" fill="#FFFFFF" fill-opacity="0.8" stroke="#8F8F8F" stroke-width="0.538" stroke-miterlimit="3.999327"/>
<rect  x="91.914" y="-0.965" width="37.033" height="15.074" rx="1.615" fill="#FFFFFF" fill-opacity="0.8" stroke="#8F8F8F" stroke-width="0.538" stroke-miterlimit="3.999327"/>
<rect  x="54.836" y="-0.965" width="37.033" height="15.074" rx="1.615" fill="#D9D9D9" fill-opacity="0.3" stroke="#8F8F8F" stroke-width="0.538" stroke-miterlimit="3.999327"/>
<rect  x="128.992" y="-0.965" width="37.033" height="15.074" rx="1.615" fill="#D9D9D9" fill-opacity="0.3" stroke="#8F8F8F" stroke-width="0.538" stroke-miterlimit="3.999327"/>
</svg>
