<svg width="236" height="238" viewBox="0 0 236 238" fill="none" xmlns="http://www.w3.org/2000/svg" xmlns:xlink="http://www.w3.org/1999/xlink">
<path d="M140.677,0.711L95.498,0.711C83.522,0.711 73.817,18.08 73.817,33.696L73.817,208.057C73.817,223.667 83.522,236.333 95.498,236.333L140.677,236.333C152.649,236.333 162.362,223.673 162.362,208.057L162.362,33.696C162.355,18.08 152.649,0.711 140.677,0.711Z" transform="rotate(-180 118.09 118.521)" fill="#192342"/>
<path d="M140.678,0.711L95.498,0.711C83.522,0.711 73.817,18.08 73.817,33.696L73.817,208.057C73.817,223.667 83.522,236.333 95.498,236.333L140.678,236.333C152.65,236.333 162.362,223.673 162.362,208.057L162.362,33.696C162.355,18.08 152.65,0.711 140.678,0.711ZM158.562,71.79L158.562,130.229L148.077,131.988L148.077,107.911L158.562,71.79ZM153.061,54.682C149.157,74.22 144.535,97.315 144.535,97.315L91.637,97.315L83.1,54.682C83.104,54.682 117.233,39.562 153.061,54.682ZM88.218,109.489L88.218,131.993L77.729,130.244L77.729,73.363L88.218,109.489ZM77.729,190.773L77.729,138.876L88.218,140.595L88.218,181.655L77.729,190.773ZM83.711,205.521L92.233,188.809L145.142,188.809L153.668,205.521L83.711,205.521ZM148.077,180.087L148.077,140.65L158.562,138.871L158.562,189.21L148.077,180.087Z" transform="rotate(-180 118.09 118.521)" fill="#FF317B"/>
</svg>
