<svg width="236" height="236" viewBox="0 0 236 236" fill="none" xmlns="http://www.w3.org/2000/svg" xmlns:xlink="http://www.w3.org/1999/xlink">
<path d="M139.856,-0.72L94.677,-0.72C82.701,-0.72 72.996,16.649 72.996,32.265L72.996,206.626C72.996,222.236 82.701,234.902 94.677,234.902L139.856,234.902C151.828,234.902 161.541,222.242 161.541,206.626L161.541,32.265C161.533,16.649 151.828,-0.72 139.856,-0.72Z" transform="rotate(-180 117.269 117.091)" fill="#192342"/>
<path d="M139.856,-0.72L94.677,-0.72C82.701,-0.72 72.996,16.649 72.996,32.265L72.996,206.626C72.996,222.236 82.701,234.902 94.677,234.902L139.856,234.902C151.828,234.902 161.541,222.242 161.541,206.626L161.541,32.265C161.533,16.649 151.828,-0.72 139.856,-0.72ZM157.741,70.359L157.741,128.799L147.256,130.557L147.256,106.48L157.741,70.359ZM152.239,53.251C148.336,72.789 143.714,95.884 143.714,95.884L90.816,95.884L82.279,53.251C82.282,53.251 116.412,38.131 152.239,53.251ZM87.396,108.058L87.396,130.562L76.907,128.814L76.907,71.932L87.396,108.058ZM76.907,189.342L76.907,137.446L87.396,139.164L87.396,180.224L76.907,189.342ZM82.89,204.09L91.411,187.378L144.321,187.378L152.846,204.09L82.89,204.09ZM147.256,178.656L147.256,139.219L157.741,137.441L157.741,187.779L147.256,178.656Z" transform="rotate(-180 117.269 117.091)" fill="#FF317B"/>
</svg>
