<svg width="236" height="236" viewBox="0 0 236 236" fill="none" xmlns="http://www.w3.org/2000/svg" xmlns:xlink="http://www.w3.org/1999/xlink">
<path d="M140.677,-0.149L95.498,-0.149C83.522,-0.149 73.817,17.22 73.817,32.835L73.817,207.197C73.817,222.807 83.522,235.473 95.498,235.473L140.677,235.473C152.649,235.473 162.362,222.813 162.362,207.197L162.362,32.835C162.355,17.22 152.649,-0.149 140.677,-0.149Z" transform="rotate(-180 118.09 117.661)" fill="#192342"/>
<path d="M140.678,-0.149L95.498,-0.149C83.522,-0.149 73.817,17.22 73.817,32.835L73.817,207.197C73.817,222.807 83.522,235.473 95.498,235.473L140.678,235.473C152.65,235.473 162.362,222.813 162.362,207.197L162.362,32.835C162.355,17.22 152.65,-0.149 140.678,-0.149ZM158.562,70.93L158.562,129.369L148.077,131.127L148.077,107.05L158.562,70.93ZM153.061,53.821C149.157,73.359 144.535,96.455 144.535,96.455L91.637,96.455L83.1,53.821C83.104,53.821 117.233,38.702 153.061,53.821ZM88.218,108.628L88.218,131.132L77.729,129.384L77.729,72.503L88.218,108.628ZM77.729,189.913L77.729,138.016L88.218,139.734L88.218,180.795L77.729,189.913ZM83.711,204.661L92.233,187.949L145.142,187.949L153.668,204.661L83.711,204.661ZM148.077,179.227L148.077,139.789L158.562,138.011L158.562,188.349L148.077,179.227Z" transform="rotate(-180 118.09 117.661)" fill="#FF317B"/>
</svg>
