<svg width="236" height="236" viewBox="0 0 236 236" fill="none" xmlns="http://www.w3.org/2000/svg" xmlns:xlink="http://www.w3.org/1999/xlink">
<path d="M140.677,-0.72L95.498,-0.72C83.522,-0.72 73.817,16.649 73.817,32.265L73.817,206.626C73.817,222.236 83.522,234.902 95.498,234.902L140.677,234.902C152.649,234.902 162.362,222.242 162.362,206.626L162.362,32.265C162.355,16.649 152.649,-0.72 140.677,-0.72Z" transform="rotate(-180 118.09 117.091)" fill="#192342"/>
<path d="M140.678,-0.72L95.498,-0.72C83.522,-0.72 73.817,16.649 73.817,32.265L73.817,206.626C73.817,222.236 83.522,234.902 95.498,234.902L140.678,234.902C152.65,234.902 162.362,222.242 162.362,206.626L162.362,32.265C162.355,16.649 152.65,-0.72 140.678,-0.72ZM158.562,70.359L158.562,128.799L148.077,130.557L148.077,106.48L158.562,70.359ZM153.061,53.251C149.157,72.789 144.535,95.884 144.535,95.884L91.637,95.884L83.1,53.251C83.104,53.251 117.233,38.131 153.061,53.251ZM88.218,108.058L88.218,130.562L77.729,128.814L77.729,71.932L88.218,108.058ZM77.729,189.342L77.729,137.446L88.218,139.164L88.218,180.224L77.729,189.342ZM83.711,204.09L92.233,187.378L145.142,187.378L153.668,204.09L83.711,204.09ZM148.077,178.656L148.077,139.219L158.562,137.441L158.562,187.779L148.077,178.656Z" transform="rotate(-180 118.09 117.091)" fill="#FF317B"/>
</svg>
