<svg width="238" height="238" viewBox="0 0 238 238" fill="none" xmlns="http://www.w3.org/2000/svg" xmlns:xlink="http://www.w3.org/1999/xlink">
<path d="M141.356,0.395L96.177,0.395C84.201,0.395 74.496,17.764 74.496,33.38L74.496,207.742C74.496,223.352 84.201,236.018 96.177,236.018L141.356,236.018C153.328,236.018 163.041,223.358 163.041,207.742L163.041,33.38C163.033,17.764 153.328,0.395 141.356,0.395Z" transform="rotate(-180 118.769 118.206)" fill="#192342"/>
<path d="M141.356,0.396L96.177,0.396C84.201,0.396 74.496,17.764 74.496,33.38L74.496,207.742C74.496,223.352 84.201,236.018 96.177,236.018L141.356,236.018C153.328,236.018 163.041,223.358 163.041,207.742L163.041,33.38C163.033,17.764 153.328,0.396 141.356,0.396ZM159.241,71.475L159.241,129.914L148.756,131.672L148.756,107.595L159.241,71.475ZM153.739,54.366C149.836,73.904 145.214,97 145.214,97L92.316,97L83.779,54.366C83.782,54.366 117.912,39.247 153.739,54.366ZM88.896,109.173L88.896,131.677L78.407,129.929L78.407,73.048L88.896,109.173ZM78.407,190.458L78.407,138.561L88.896,140.279L88.896,181.34L78.407,190.458ZM84.39,205.206L92.911,188.494L145.821,188.494L154.346,205.206L84.39,205.206ZM148.756,179.772L148.756,140.334L159.241,138.556L159.241,188.894L148.756,179.772Z" transform="rotate(-180 118.769 118.206)" fill="#FF317B"/>
</svg>
