<svg width="236" height="238" viewBox="0 0 236 238" fill="none" xmlns="http://www.w3.org/2000/svg" xmlns:xlink="http://www.w3.org/1999/xlink">
<path d="M139.499,0.42L94.319,0.42C82.344,0.42 72.639,17.789 72.639,33.405L72.639,207.766C72.639,223.376 82.344,236.042 94.319,236.042L139.499,236.042C151.471,236.042 161.183,223.382 161.183,207.766L161.183,33.405C161.176,17.789 151.471,0.42 139.499,0.42Z" transform="rotate(-180 116.911 118.23)" fill="#192342"/>
<path d="M139.499,0.42L94.32,0.42C82.344,0.42 72.639,17.789 72.639,33.405L72.639,207.766C72.639,223.376 82.344,236.042 94.32,236.042L139.499,236.042C151.471,236.042 161.184,223.382 161.184,207.766L161.184,33.405C161.176,17.789 151.471,0.42 139.499,0.42ZM157.384,71.499L157.384,129.938L146.899,131.697L146.899,107.62L157.384,71.499ZM151.882,54.391C147.978,73.929 143.356,97.024 143.356,97.024L90.458,97.024L81.921,54.391C81.925,54.391 116.054,39.271 151.882,54.391ZM87.039,109.198L87.039,131.702L76.55,129.953L76.55,73.072L87.039,109.198ZM76.55,190.482L76.55,138.585L87.039,140.304L87.039,181.364L76.55,190.482ZM82.532,205.23L91.054,188.518L143.963,188.518L152.489,205.23L82.532,205.23ZM146.899,179.796L146.899,140.359L157.384,138.58L157.384,188.919L146.899,179.796Z" transform="rotate(-180 116.911 118.23)" fill="#FF317B"/>
</svg>
