<svg width="236" height="238" viewBox="0 0 236 238" fill="none" xmlns="http://www.w3.org/2000/svg" xmlns:xlink="http://www.w3.org/1999/xlink">
<path d="M140.677,0.989L95.498,0.989C83.522,0.989 73.817,18.358 73.817,33.974L73.817,208.335C73.817,223.945 83.522,236.611 95.498,236.611L140.677,236.611C152.649,236.611 162.362,223.951 162.362,208.335L162.362,33.974C162.355,18.358 152.649,0.989 140.677,0.989Z" transform="rotate(-180 118.09 118.8)" fill="#192342"/>
<path d="M140.678,0.989L95.498,0.989C83.522,0.989 73.817,18.358 73.817,33.974L73.817,208.335C73.817,223.945 83.522,236.611 95.498,236.611L140.678,236.611C152.65,236.611 162.362,223.951 162.362,208.335L162.362,33.974C162.355,18.358 152.65,0.989 140.678,0.989ZM158.562,72.068L158.562,130.508L148.077,132.266L148.077,108.189L158.562,72.068ZM153.061,54.96C149.157,74.498 144.535,97.593 144.535,97.593L91.637,97.593L83.1,54.96C83.104,54.96 117.233,39.84 153.061,54.96ZM88.218,109.767L88.218,132.271L77.729,130.523L77.729,73.641L88.218,109.767ZM77.729,191.051L77.729,139.155L88.218,140.873L88.218,181.933L77.729,191.051ZM83.711,205.799L92.233,189.087L145.142,189.087L153.668,205.799L83.711,205.799ZM148.077,180.365L148.077,140.928L158.562,139.15L158.562,189.488L148.077,180.365Z" transform="rotate(-180 118.09 118.8)" fill="#FF317B"/>
</svg>
