<svg width="620" height="602" viewBox="0 0 620 602" fill="none" xmlns="http://www.w3.org/2000/svg" xmlns:xlink="http://www.w3.org/1999/xlink">
<path d="M310,602C481.208,602 620,467.238 620,301C620,134.762 481.208,0 310,0C138.792,0 0,134.762 0,301C0,467.238 138.792,602 310,602Z" fill="#FFFFFF"/>
<path d="M310,139.797C265.136,139.845 222.124,156.845 190.4,187.066C158.677,217.287 140.832,258.261 140.781,301C150.077,514.857 469.957,514.795 479.219,300.999C479.167,258.26 461.323,217.286 429.599,187.065C397.875,156.845 354.863,139.845 310,139.797L310,139.797ZM310,445.235C269.859,445.191 231.374,429.981 202.99,402.941C174.606,375.901 158.64,339.24 158.594,301C166.912,109.654 453.119,109.709 461.407,301.001C461.361,339.241 445.393,375.901 417.009,402.941C388.625,429.981 350.141,445.191 310,445.235L310,445.235Z" fill="#DF1525"/>
<path d="M369.734,244.095C368.907,243.307 367.925,242.682 366.845,242.255C365.764,241.829 364.606,241.609 363.437,241.609C362.267,241.609 361.109,241.829 360.028,242.255C358.948,242.682 357.966,243.307 357.14,244.095L309.999,289.003L262.859,244.095C261.18,242.543 258.928,241.683 256.589,241.7C254.25,241.717 252.013,242.61 250.359,244.185C248.705,245.761 247.768,247.893 247.751,250.121C247.733,252.349 248.636,254.494 250.265,256.093L297.405,301L250.265,345.908C248.594,347.498 247.656,349.656 247.656,351.906C247.656,354.156 248.594,356.314 250.265,357.905C251.935,359.496 254.2,360.39 256.562,360.39C258.923,360.39 261.189,359.496 262.859,357.905L309.999,312.997L357.14,357.905C357.965,358.694 358.947,359.32 360.028,359.747C361.108,360.173 362.267,360.392 363.437,360.391C365.185,360.364 366.887,359.85 368.334,358.913C369.78,357.977 370.907,356.657 371.576,355.118C372.245,353.579 372.427,351.887 372.1,350.25C371.772,348.614 370.95,347.104 369.733,345.907L322.593,301L369.734,256.092C370.561,255.305 371.217,254.37 371.665,253.34C372.112,252.311 372.343,251.208 372.343,250.094C372.343,248.98 372.112,247.876 371.665,246.847C371.217,245.818 370.561,244.883 369.734,244.095L369.734,244.095Z" fill="#DF1525"/>
</svg>
