<svg width="620" height="604" viewBox="0 0 620 604" fill="none" xmlns="http://www.w3.org/2000/svg" xmlns:xlink="http://www.w3.org/1999/xlink">
<path d="M310,602.585C481.208,602.585 620,467.823 620,301.585C620,135.347 481.208,0.585 310,0.585C138.792,0.585 0,135.347 0,301.585C0,467.823 138.792,602.585 310,602.585Z" fill="#FFFFFF"/>
<path d="M310,140.382C265.136,140.43 222.124,157.43 190.4,187.651C158.677,217.872 140.832,258.846 140.781,301.585C150.077,515.442 469.957,515.38 479.219,301.584C479.167,258.845 461.323,217.871 429.599,187.65C397.875,157.43 354.863,140.43 310,140.382L310,140.382ZM310,445.82C269.859,445.776 231.374,430.566 202.99,403.526C174.606,376.486 158.64,339.825 158.594,301.585C166.912,110.239 453.119,110.294 461.407,301.586C461.361,339.826 445.393,376.486 417.009,403.526C388.625,430.566 350.141,445.776 310,445.82L310,445.82Z" fill="#DF1525"/>
<path d="M369.735,244.68C368.908,243.892 367.926,243.267 366.846,242.84C365.765,242.414 364.607,242.194 363.438,242.194C362.268,242.194 361.11,242.414 360.029,242.84C358.949,243.267 357.967,243.892 357.141,244.68L310,289.588L262.86,244.68C261.181,243.128 258.929,242.268 256.59,242.285C254.251,242.302 252.014,243.195 250.36,244.77C248.706,246.346 247.769,248.478 247.752,250.706C247.734,252.934 248.637,255.079 250.266,256.678L297.406,301.585L250.266,346.493C248.595,348.083 247.657,350.241 247.657,352.491C247.657,354.741 248.595,356.899 250.266,358.49C251.936,360.081 254.201,360.975 256.563,360.975C258.924,360.975 261.189,360.081 262.86,358.49L310,313.582L357.141,358.49C357.966,359.279 358.948,359.905 360.029,360.332C361.109,360.758 362.268,360.977 363.438,360.976C365.186,360.949 366.888,360.435 368.335,359.498C369.781,358.562 370.908,357.242 371.577,355.703C372.246,354.164 372.428,352.472 372.101,350.835C371.773,349.199 370.951,347.689 369.734,346.492L322.594,301.585L369.735,256.677C370.562,255.89 371.218,254.955 371.666,253.925C372.113,252.896 372.344,251.793 372.344,250.679C372.344,249.565 372.113,248.461 371.666,247.432C371.218,246.403 370.562,245.468 369.735,244.68L369.735,244.68Z" fill="#DF1525"/>
</svg>
