<svg width="236" height="238" viewBox="0 0 236 238" fill="none" xmlns="http://www.w3.org/2000/svg" xmlns:xlink="http://www.w3.org/1999/xlink">
<path d="M140.677,0.674L95.498,0.674C83.522,0.674 73.817,18.043 73.817,33.658L73.817,208.02C73.817,223.63 83.522,236.296 95.498,236.296L140.677,236.296C152.649,236.296 162.362,223.636 162.362,208.02L162.362,33.658C162.355,18.043 152.649,0.674 140.677,0.674Z" transform="rotate(-180 118.09 118.484)" fill="#192342"/>
<path d="M140.678,0.674L95.498,0.674C83.522,0.674 73.817,18.043 73.817,33.658L73.817,208.02C73.817,223.63 83.522,236.296 95.498,236.296L140.678,236.296C152.65,236.296 162.362,223.636 162.362,208.02L162.362,33.658C162.355,18.043 152.65,0.674 140.678,0.674ZM158.562,71.753L158.562,130.192L148.077,131.951L148.077,107.874L158.562,71.753ZM153.061,54.644C149.157,74.183 144.535,97.278 144.535,97.278L91.637,97.278L83.1,54.644C83.104,54.644 117.233,39.525 153.061,54.644ZM88.218,109.452L88.218,131.956L77.729,130.207L77.729,73.326L88.218,109.452ZM77.729,190.736L77.729,138.839L88.218,140.558L88.218,181.618L77.729,190.736ZM83.711,205.484L92.233,188.772L145.142,188.772L153.668,205.484L83.711,205.484ZM148.077,180.05L148.077,140.613L158.562,138.834L158.562,189.173L148.077,180.05Z" transform="rotate(-180 118.09 118.484)" fill="#FF317B"/>
</svg>
