<svg width="236" height="236" viewBox="0 0 236 236" fill="none" xmlns="http://www.w3.org/2000/svg" xmlns:xlink="http://www.w3.org/1999/xlink">
<path d="M140.677,-0.44L95.498,-0.44C83.522,-0.44 73.817,16.929 73.817,32.544L73.817,206.906C73.817,222.516 83.522,235.182 95.498,235.182L140.677,235.182C152.649,235.182 162.362,222.522 162.362,206.906L162.362,32.544C162.355,16.929 152.649,-0.44 140.677,-0.44Z" transform="rotate(-180 118.09 117.37)" fill="#192342"/>
<path d="M140.678,-0.44L95.498,-0.44C83.522,-0.44 73.817,16.929 73.817,32.544L73.817,206.906C73.817,222.516 83.522,235.182 95.498,235.182L140.678,235.182C152.65,235.182 162.362,222.522 162.362,206.906L162.362,32.544C162.355,16.929 152.65,-0.44 140.678,-0.44ZM158.562,70.639L158.562,129.078L148.077,130.836L148.077,106.759L158.562,70.639ZM153.061,53.53C149.157,73.068 144.535,96.164 144.535,96.164L91.637,96.164L83.1,53.53C83.104,53.53 117.233,38.411 153.061,53.53ZM88.218,108.337L88.218,130.841L77.729,129.093L77.729,72.212L88.218,108.337ZM77.729,189.622L77.729,137.725L88.218,139.443L88.218,180.504L77.729,189.622ZM83.711,204.37L92.233,187.658L145.142,187.658L153.668,204.37L83.711,204.37ZM148.077,178.936L148.077,139.498L158.562,137.72L158.562,188.058L148.077,178.936Z" transform="rotate(-180 118.09 117.37)" fill="#FF317B"/>
</svg>
