<svg width="238" height="238" viewBox="0 0 238 238" fill="none" xmlns="http://www.w3.org/2000/svg" xmlns:xlink="http://www.w3.org/1999/xlink">
<path d="M141.356,0.989L96.177,0.989C84.201,0.989 74.496,18.358 74.496,33.974L74.496,208.335C74.496,223.945 84.201,236.611 96.177,236.611L141.356,236.611C153.328,236.611 163.041,223.951 163.041,208.335L163.041,33.974C163.033,18.358 153.328,0.989 141.356,0.989Z" transform="rotate(-180 118.769 118.8)" fill="#192342"/>
<path d="M141.356,0.989L96.177,0.989C84.201,0.989 74.496,18.358 74.496,33.974L74.496,208.335C74.496,223.945 84.201,236.611 96.177,236.611L141.356,236.611C153.328,236.611 163.041,223.951 163.041,208.335L163.041,33.974C163.033,18.358 153.328,0.989 141.356,0.989ZM159.241,72.068L159.241,130.508L148.756,132.266L148.756,108.189L159.241,72.068ZM153.739,54.96C149.836,74.498 145.214,97.593 145.214,97.593L92.316,97.593L83.779,54.96C83.782,54.96 117.912,39.84 153.739,54.96ZM88.896,109.767L88.896,132.271L78.407,130.523L78.407,73.641L88.896,109.767ZM78.407,191.051L78.407,139.155L88.896,140.873L88.896,181.933L78.407,191.051ZM84.39,205.799L92.911,189.087L145.821,189.087L154.346,205.799L84.39,205.799ZM148.756,180.365L148.756,140.928L159.241,139.15L159.241,189.488L148.756,180.365Z" transform="rotate(-180 118.769 118.8)" fill="#FF317B"/>
</svg>
