<svg width="236" height="238" viewBox="0 0 236 238" fill="none" xmlns="http://www.w3.org/2000/svg" xmlns:xlink="http://www.w3.org/1999/xlink">
<path d="M140.677,0.42L95.498,0.42C83.522,0.42 73.817,17.789 73.817,33.405L73.817,207.766C73.817,223.376 83.522,236.042 95.498,236.042L140.677,236.042C152.649,236.042 162.362,223.382 162.362,207.766L162.362,33.405C162.355,17.789 152.649,0.42 140.677,0.42Z" transform="rotate(-180 118.09 118.23)" fill="#192342"/>
<path d="M140.678,0.42L95.498,0.42C83.522,0.42 73.817,17.789 73.817,33.405L73.817,207.766C73.817,223.376 83.522,236.042 95.498,236.042L140.678,236.042C152.65,236.042 162.362,223.382 162.362,207.766L162.362,33.405C162.355,17.789 152.65,0.42 140.678,0.42ZM158.562,71.499L158.562,129.938L148.077,131.697L148.077,107.62L158.562,71.499ZM153.061,54.391C149.157,73.929 144.535,97.024 144.535,97.024L91.637,97.024L83.1,54.391C83.104,54.391 117.233,39.271 153.061,54.391ZM88.218,109.198L88.218,131.702L77.729,129.953L77.729,73.072L88.218,109.198ZM77.729,190.482L77.729,138.585L88.218,140.304L88.218,181.364L77.729,190.482ZM83.711,205.23L92.233,188.518L145.142,188.518L153.668,205.23L83.711,205.23ZM148.077,179.796L148.077,140.359L158.562,138.58L158.562,188.919L148.077,179.796Z" transform="rotate(-180 118.09 118.23)" fill="#FF317B"/>
</svg>
