<svg width="94" height="86" viewBox="0 0 94 86" fill="none" xmlns="http://www.w3.org/2000/svg" xmlns:xlink="http://www.w3.org/1999/xlink">
<path d="M94,42.585C94,65.781 72.957,84.585 47,84.585C21.043,84.585 0,65.781 0,42.585C0,19.389 21.043,0.585 47,0.585C72.957,0.585 94,19.389 94,42.585Z" fill="#456EFF"/>
<g filter="url(#filter1_705)">
<path d="M68.64,24.01C69.427,22.553 68.883,20.732 67.425,19.945C65.968,19.158 64.148,19.702 63.36,21.16L68.64,24.01ZM44.4,62.585L42.148,64.567L44.993,67.8L47.04,64.01L44.4,62.585ZM32.252,44.239C31.158,42.996 29.262,42.875 28.018,43.969C26.774,45.064 26.653,46.959 27.748,48.203L32.252,44.239ZM63.36,21.16L41.76,61.16L47.04,64.01L68.64,24.01L63.36,21.16ZM46.652,60.603L32.252,44.239L27.748,48.203L42.148,64.567L46.652,60.603Z" fill="#FFFFFF"/>
</g>
<defs>
<filter id="filter1_705" x="26" y="18.584961" width="26" height="28" filterUnits="userSpaceOnUse" color-interpolation-filters="sRGB">
<feFlood flood-opacity="0" result="BackgroundImageFix"/>
<feColorMatrix in="SourceAlpha" type="matrix" values="0 0 0 0 0 0 0 0 0 0 0 0 0 0 0 0 0 0 127 0" result="hardAlpha"/>
<feMorphology radius="0" operator="dilate" in="SourceAlpha" result="0dropshadow"/>
<feOffset dx="0" dy="4"/>
<feGaussianBlur stdDeviation="2"/>
<feComposite in2="hardAlpha" operator="out"/>
<feColorMatrix type="matrix" values="0 0 0 0 0 0 0 0 0 0 0 0 0 0 0 0 0 0 0.25 0"/>
<feBlend mode="normal" in2="BackgroundImageFix" result="0dropshadow"/>
<feBlend mode="normal" in="SourceGraphic" in2="0dropshadow" result="shape"/>
</filter>
</defs>
</svg>
