<svg width="236" height="238" viewBox="0 0 236 238" fill="none" xmlns="http://www.w3.org/2000/svg" xmlns:xlink="http://www.w3.org/1999/xlink">
<path d="M139.856,0.989L94.677,0.989C82.701,0.989 72.996,18.358 72.996,33.974L72.996,208.335C72.996,223.945 82.701,236.611 94.677,236.611L139.856,236.611C151.828,236.611 161.541,223.951 161.541,208.335L161.541,33.974C161.533,18.358 151.828,0.989 139.856,0.989Z" transform="rotate(-180 117.269 118.8)" fill="#192342"/>
<path d="M139.856,0.989L94.677,0.989C82.701,0.989 72.996,18.358 72.996,33.974L72.996,208.335C72.996,223.945 82.701,236.611 94.677,236.611L139.856,236.611C151.828,236.611 161.541,223.951 161.541,208.335L161.541,33.974C161.533,18.358 151.828,0.989 139.856,0.989ZM157.741,72.068L157.741,130.508L147.256,132.266L147.256,108.189L157.741,72.068ZM152.239,54.96C148.336,74.498 143.714,97.593 143.714,97.593L90.816,97.593L82.279,54.96C82.282,54.96 116.412,39.84 152.239,54.96ZM87.396,109.767L87.396,132.271L76.907,130.523L76.907,73.641L87.396,109.767ZM76.907,191.051L76.907,139.155L87.396,140.873L87.396,181.933L76.907,191.051ZM82.89,205.799L91.411,189.087L144.321,189.087L152.846,205.799L82.89,205.799ZM147.256,180.365L147.256,140.928L157.741,139.15L157.741,189.488L147.256,180.365Z" transform="rotate(-180 117.269 118.8)" fill="#FF317B"/>
</svg>
