<svg width="236" height="236" viewBox="0 0 236 236" fill="none" xmlns="http://www.w3.org/2000/svg" xmlns:xlink="http://www.w3.org/1999/xlink">
<path d="M139.856,-0.44L94.677,-0.44C82.701,-0.44 72.996,16.929 72.996,32.544L72.996,206.906C72.996,222.516 82.701,235.182 94.677,235.182L139.856,235.182C151.828,235.182 161.541,222.522 161.541,206.906L161.541,32.544C161.533,16.929 151.828,-0.44 139.856,-0.44Z" transform="rotate(-180 117.269 117.37)" fill="#192342"/>
<path d="M139.856,-0.44L94.677,-0.44C82.701,-0.44 72.996,16.929 72.996,32.544L72.996,206.906C72.996,222.516 82.701,235.182 94.677,235.182L139.856,235.182C151.828,235.182 161.541,222.522 161.541,206.906L161.541,32.544C161.533,16.929 151.828,-0.44 139.856,-0.44ZM157.741,70.639L157.741,129.078L147.256,130.836L147.256,106.759L157.741,70.639ZM152.239,53.53C148.336,73.068 143.714,96.164 143.714,96.164L90.816,96.164L82.279,53.53C82.282,53.53 116.412,38.411 152.239,53.53ZM87.396,108.337L87.396,130.841L76.907,129.093L76.907,72.212L87.396,108.337ZM76.907,189.622L76.907,137.725L87.396,139.443L87.396,180.504L76.907,189.622ZM82.89,204.37L91.411,187.658L144.321,187.658L152.846,204.37L82.89,204.37ZM147.256,178.936L147.256,139.498L157.741,137.72L157.741,188.058L147.256,178.936Z" transform="rotate(-180 117.269 117.37)" fill="#FF317B"/>
</svg>
