<svg width="236" height="238" viewBox="0 0 236 238" fill="none" xmlns="http://www.w3.org/2000/svg" xmlns:xlink="http://www.w3.org/1999/xlink">
<path d="M139.856,0.711L94.677,0.711C82.701,0.711 72.996,18.08 72.996,33.696L72.996,208.057C72.996,223.667 82.701,236.333 94.677,236.333L139.856,236.333C151.828,236.333 161.541,223.673 161.541,208.057L161.541,33.696C161.533,18.08 151.828,0.711 139.856,0.711Z" transform="rotate(-180 117.269 118.521)" fill="#192342"/>
<path d="M139.856,0.711L94.677,0.711C82.701,0.711 72.996,18.08 72.996,33.696L72.996,208.057C72.996,223.667 82.701,236.333 94.677,236.333L139.856,236.333C151.828,236.333 161.541,223.673 161.541,208.057L161.541,33.696C161.533,18.08 151.828,0.711 139.856,0.711ZM157.741,71.79L157.741,130.229L147.256,131.988L147.256,107.911L157.741,71.79ZM152.239,54.682C148.336,74.22 143.714,97.315 143.714,97.315L90.816,97.315L82.279,54.682C82.282,54.682 116.412,39.562 152.239,54.682ZM87.396,109.489L87.396,131.993L76.907,130.244L76.907,73.363L87.396,109.489ZM76.907,190.773L76.907,138.876L87.396,140.595L87.396,181.655L76.907,190.773ZM82.89,205.521L91.411,188.809L144.321,188.809L152.846,205.521L82.89,205.521ZM147.256,180.087L147.256,140.65L157.741,138.871L157.741,189.21L147.256,180.087Z" transform="rotate(-180 117.269 118.521)" fill="#FF317B"/>
</svg>
