<svg width="2174" height="1160" viewBox="0 0 2174 1160" fill="none" xmlns="http://www.w3.org/2000/svg" xmlns:xlink="http://www.w3.org/1999/xlink">
<line x1="1" y1="0.945" x2="1" y2="1158.958" stroke="#677191" stroke-width="1" stroke-miterlimit="3.999327"/>
<line x1="1086.181" y1="331.806" x2="1086.181" y2="830.642" stroke="#677191" stroke-width="1" stroke-miterlimit="3.999327"/>
<line x1="0" y1="2.49" x2="919.251" y2="2.49" stroke="#677191" stroke-width="1" stroke-miterlimit="3.999327"/>
<line x1="0" y1="1157.958" x2="919.251" y2="1157.958" stroke="#677191" stroke-width="1" stroke-miterlimit="3.999327"/>
<line x1="0" y1="167.921" x2="331.859" y2="167.921" stroke="#677191" stroke-width="1" stroke-miterlimit="3.999327"/>
<line x1="0" y1="333.351" x2="331.859" y2="333.351" stroke="#677191" stroke-width="1" stroke-miterlimit="3.999327"/>
<line x1="753.321" y1="333.351" x2="1085.181" y2="333.351" stroke="#677191" stroke-width="1" stroke-miterlimit="3.999327"/>
<line x1="0" y1="498.781" x2="331.859" y2="498.781" stroke="#677191" stroke-width="1" stroke-miterlimit="3.999327"/>
<line x1="753.321" y1="498.781" x2="1085.181" y2="498.781" stroke="#677191" stroke-width="1" stroke-miterlimit="3.999327"/>
<line x1="0" y1="664.212" x2="331.859" y2="664.212" stroke="#677191" stroke-width="1" stroke-miterlimit="3.999327"/>
<line x1="753.321" y1="664.212" x2="1085.181" y2="664.212" stroke="#677191" stroke-width="1" stroke-miterlimit="3.999327"/>
<line x1="0" y1="829.642" x2="331.859" y2="829.642" stroke="#677191" stroke-width="1" stroke-miterlimit="3.999327"/>
<line x1="753.321" y1="829.642" x2="1085.181" y2="829.642" stroke="#677191" stroke-width="1" stroke-miterlimit="3.999327"/>
<line x1="0" y1="995.072" x2="331.859" y2="995.072" stroke="#677191" stroke-width="1" stroke-miterlimit="3.999327"/>
<line x1="2174.68" y1="1158.958" x2="2174.68" y2="0.945" stroke="#677191" stroke-width="1" stroke-miterlimit="3.999327"/>
<line x1="2173.68" y1="2.49" x2="1254.429" y2="2.49" stroke="#677191" stroke-width="1" stroke-miterlimit="3.999327"/>
<line x1="2173.68" y1="1157.958" x2="1254.429" y2="1157.958" stroke="#677191" stroke-width="1" stroke-miterlimit="3.999327"/>
<line x1="2173.68" y1="167.921" x2="1841.82" y2="167.921" stroke="#677191" stroke-width="1" stroke-miterlimit="3.999327"/>
<line x1="2173.68" y1="333.351" x2="1841.82" y2="333.351" stroke="#677191" stroke-width="1" stroke-miterlimit="3.999327"/>
<line x1="2173.68" y1="498.781" x2="1841.82" y2="498.781" stroke="#677191" stroke-width="1" stroke-miterlimit="3.999327"/>
<line x1="2173.68" y1="664.212" x2="1841.82" y2="664.212" stroke="#677191" stroke-width="1" stroke-miterlimit="3.999327"/>
<line x1="2173.68" y1="829.642" x2="1841.82" y2="829.642" stroke="#677191" stroke-width="1" stroke-miterlimit="3.999327"/>
<line x1="2173.68" y1="995.072" x2="1841.82" y2="995.072" stroke="#677191" stroke-width="1" stroke-miterlimit="3.999327"/>
<line x1="1420.358" y1="333.351" x2="1088.499" y2="333.351" stroke="#677191" stroke-width="1" stroke-miterlimit="3.999327"/>
<line x1="1420.358" y1="498.781" x2="1088.499" y2="498.781" stroke="#677191" stroke-width="1" stroke-miterlimit="3.999327"/>
<line x1="1420.358" y1="664.212" x2="1088.499" y2="664.212" stroke="#677191" stroke-width="1" stroke-miterlimit="3.999327"/>
<line x1="1420.358" y1="829.642" x2="1088.499" y2="829.642" stroke="#677191" stroke-width="1" stroke-miterlimit="3.999327"/>
</svg>
