<svg width="60" height="62" viewBox="0 0 60 62" fill="none" xmlns="http://www.w3.org/2000/svg" xmlns:xlink="http://www.w3.org/1999/xlink">
<path d="M51.477,23.345C51.621,22.529 51.076,21.751 50.26,21.608C49.444,21.464 48.666,22.009 48.523,22.825L51.477,23.345ZM45.012,51.451L43.535,51.191L43.535,51.191L45.012,51.451ZM14.987,51.451L16.465,51.191L16.465,51.191L14.987,51.451ZM11.477,22.825C11.334,22.009 10.556,21.464 9.74,21.608C8.924,21.751 8.379,22.529 8.523,23.345L11.477,22.825ZM48.523,22.825L43.535,51.191L46.49,51.711L51.477,23.345L48.523,22.825ZM43.535,51.191C43.241,52.865 41.787,54.085 40.088,54.085L40.088,57.085C43.244,57.085 45.944,54.818 46.49,51.71L43.535,51.191ZM40.088,54.085L19.912,54.085L19.912,57.085L40.088,57.085L40.088,54.085ZM19.912,54.085C18.213,54.085 16.759,52.865 16.465,51.191L13.51,51.711C14.056,54.818 16.756,57.085 19.912,57.085L19.912,54.085ZM16.465,51.191L11.477,22.825L8.523,23.345L13.51,51.711L16.465,51.191Z" fill="#000000"/>
<path d="M52.5,17.085C53.328,17.085 54,16.413 54,15.585C54,14.757 53.328,14.085 52.5,14.085L52.5,17.085ZM7.5,14.085C6.672,14.085 6,14.757 6,15.585C6,16.413 6.672,17.085 7.5,17.085L7.5,14.085ZM52.5,14.085L38.438,14.085L38.438,17.085L52.5,17.085L52.5,14.085ZM7.5,17.085L21.563,17.085L21.563,14.085L7.5,14.085L7.5,17.085ZM23.063,15.585L23.063,10.585L20.063,10.585L20.063,15.585L23.063,15.585ZM23.063,10.585C23.063,8.652 24.63,7.085 26.563,7.085L26.563,4.085C22.973,4.085 20.063,6.995 20.063,10.585L23.063,10.585ZM26.563,7.085L33.438,7.085L33.438,4.085L26.563,4.085L26.563,7.085ZM33.438,7.085C35.371,7.085 36.938,8.652 36.938,10.585L39.938,10.585C39.938,6.995 37.027,4.085 33.438,4.085L33.438,7.085ZM36.938,10.585L36.938,15.585L39.938,15.585L39.938,10.585L36.938,10.585ZM21.563,17.085L38.438,17.085L38.438,14.085L21.563,14.085L21.563,17.085Z" fill="#000000"/>
</svg>
