<svg width="142" height="70" viewBox="0 0 142 70" fill="none" xmlns="http://www.w3.org/2000/svg" xmlns:xlink="http://www.w3.org/1999/xlink">
<path d="M28.82,-0.822C12.892,-0.822 -0.02,12.09 -0.02,28.017C-0.02,43.945 12.892,56.857 28.82,56.857L59.979,56.857C60.765,56.857 61.38,57.563 61.88,58.169L61.88,58.169L70.275,68.326C71.099,69.322 72.626,69.322 73.45,68.326L81.845,58.169L81.845,58.169C82.345,57.563 82.96,56.857 83.746,56.857L111.218,56.857C127.146,56.857 140.057,43.945 140.057,28.017C140.057,12.09 127.146,-0.822 111.218,-0.822L28.82,-0.822Z" clip-rule="evenodd" fill-rule="evenodd" fill="#FFFFFF"/>
</svg>
