<svg width="140" height="72" viewBox="0 0 140 72" fill="none" xmlns="http://www.w3.org/2000/svg" xmlns:xlink="http://www.w3.org/1999/xlink">
<path d="M27.929,0.653C12.002,0.653 -0.91,13.565 -0.91,29.493C-0.91,45.42 12.002,58.332 27.929,58.332L59.088,58.332C59.874,58.332 60.489,59.039 60.989,59.645L60.989,59.645L69.384,69.801C70.208,70.798 71.736,70.798 72.559,69.801L80.954,59.645L80.954,59.645C81.455,59.039 82.069,58.332 82.855,58.332L110.327,58.332C126.255,58.332 139.167,45.42 139.167,29.493C139.167,13.565 126.255,0.653 110.327,0.653L27.929,0.653Z" clip-rule="evenodd" fill-rule="evenodd" fill="#FFFFFF"/>
</svg>
