<svg width="142" height="72" viewBox="0 0 142 72" fill="none" xmlns="http://www.w3.org/2000/svg" xmlns:xlink="http://www.w3.org/1999/xlink">
<path d="M28.863,0.668C12.935,0.668 0.023,13.58 0.023,29.508C0.023,45.435 12.935,58.347 28.863,58.347L60.022,58.347C60.808,58.347 61.422,59.054 61.923,59.659L61.923,59.659L70.317,69.816C71.141,70.812 72.669,70.812 73.493,69.816L81.887,59.659L81.887,59.659C82.388,59.054 83.003,58.347 83.789,58.347L111.261,58.347C127.189,58.347 140.1,45.435 140.1,29.508C140.1,13.58 127.189,0.668 111.261,0.668L28.863,0.668Z" clip-rule="evenodd" fill-rule="evenodd" fill="#FFFFFF"/>
</svg>
