<svg width="142" height="70" viewBox="0 0 142 70" fill="none" xmlns="http://www.w3.org/2000/svg" xmlns:xlink="http://www.w3.org/1999/xlink">
<path d="M28.8,0.015C12.873,0.015 -0.039,12.927 -0.039,28.855C-0.039,44.782 12.873,57.694 28.8,57.694L59.96,57.694C60.746,57.694 61.36,58.401 61.861,59.007L61.861,59.007L70.256,69.163C71.079,70.16 72.607,70.16 73.431,69.163L81.826,59.007L81.826,59.007C82.326,58.401 82.941,57.694 83.727,57.694L111.199,57.694C127.126,57.694 140.038,44.782 140.038,28.855C140.038,12.927 127.126,0.015 111.199,0.015L28.8,0.015Z" clip-rule="evenodd" fill-rule="evenodd" fill="#FFFFFF"/>
</svg>
