<svg width="114" height="88" viewBox="0 0 114 88" fill="none" xmlns="http://www.w3.org/2000/svg" xmlns:xlink="http://www.w3.org/1999/xlink">
<path d="M37.219,31.833L51.867,22.667L81.833,22.667L81.833,31.833L55.256,31.833L40.5,41L4.333,41L4.333,31.833L37.219,31.833ZM41.952,55.025L57.064,50.144L60.598,58.76L45.486,63.637C46.197,68.668 44.794,73.756 41.545,77.928C38.296,82.099 33.429,85.063 27.872,86.253C22.316,87.443 16.46,86.775 11.423,84.378C6.387,81.98 2.522,78.021 0.568,73.256C-1.387,68.491 -1.294,63.254 0.829,58.546C2.951,53.838 6.954,49.988 12.073,47.732C17.193,45.477 23.069,44.973 28.581,46.317C34.092,47.662 38.852,50.76 41.952,55.02L41.952,55.025ZM22.417,77.667C25.842,77.667 29.128,76.459 31.55,74.311C33.972,72.162 35.333,69.247 35.333,66.208C35.333,63.169 33.972,60.255 31.55,58.106C29.128,55.957 25.842,54.75 22.417,54.75C18.991,54.75 15.705,55.957 13.283,58.106C10.861,60.255 9.5,63.169 9.5,66.208C9.5,69.247 10.861,72.162 13.283,74.311C15.705,76.459 18.991,77.667 22.417,77.667L22.417,77.667ZM89.583,86.833C86.53,86.833 83.507,86.3 80.686,85.263C77.865,84.227 75.302,82.708 73.143,80.792C70.984,78.877 69.272,76.604 68.103,74.101C66.935,71.599 66.333,68.917 66.333,66.208C66.333,63.5 66.935,60.818 68.103,58.315C69.272,55.813 70.984,53.539 73.143,51.624C75.302,49.709 77.865,48.19 80.686,47.153C83.507,46.117 86.53,45.583 89.583,45.583C95.75,45.583 101.663,47.756 106.024,51.624C110.384,55.492 112.833,60.738 112.833,66.208C112.833,71.678 110.384,76.924 106.024,80.792C101.663,84.66 95.75,86.833 89.583,86.833L89.583,86.833ZM89.583,77.667C93.009,77.667 96.294,76.459 98.717,74.311C101.139,72.162 102.5,69.247 102.5,66.208C102.5,63.169 101.139,60.255 98.717,58.106C96.294,55.957 93.009,54.75 89.583,54.75C86.158,54.75 82.872,55.957 80.45,58.106C78.028,60.255 76.667,63.169 76.667,66.208C76.667,69.247 78.028,72.162 80.45,74.311C82.872,76.459 86.158,77.667 89.583,77.667ZM14.667,36.417L45.667,36.417L59.1,28.474L60.547,23.68L70.529,26.054L60.598,58.738L51.185,54.668L51.794,52.651L40.5,59.333L35.333,50.167L14.667,50.167L14.667,36.417ZM77.142,13.5L97.333,13.5L97.333,27.25L82.784,27.25L92.704,51.432L82.991,54.567L71.789,27.25L71.5,27.25L71.5,26.553L64.267,8.917L50.833,8.917L50.833,-0.25L71.5,-0.25L77.142,13.5Z" fill="#192342"/>
</svg>
