<svg width="120" height="120" viewBox="0 0 120 120" fill="none" xmlns="http://www.w3.org/2000/svg" xmlns:xlink="http://www.w3.org/1999/xlink">
<path d="M60,-0.83C26.855,-0.83 0,26.025 0,59.17C0,92.315 26.855,119.17 60,119.17C93.145,119.17 120,92.315 120,59.17C120,26.025 93.145,-0.83 60,-0.83ZM60,22.396C71.758,22.396 81.29,31.928 81.29,43.686C81.29,55.444 71.758,64.976 60,64.976C48.242,64.976 38.71,55.444 38.71,43.686C38.71,31.928 48.242,22.396 60,22.396ZM60,105.622C45.798,105.622 33.073,99.186 24.556,89.122C29.105,80.557 38.008,74.654 48.387,74.654C48.968,74.654 49.548,74.751 50.105,74.92C53.25,75.936 56.54,76.589 60,76.589C63.46,76.589 66.774,75.936 69.895,74.92C70.452,74.751 71.032,74.654 71.613,74.654C81.992,74.654 90.895,80.557 95.444,89.122C86.927,99.186 74.202,105.622 60,105.622Z" fill="#000000"/>
</svg>
