<svg width="56" height="58" viewBox="0 0 56 58" fill="none" xmlns="http://www.w3.org/2000/svg" xmlns:xlink="http://www.w3.org/1999/xlink">
<path d="M28,32.085C36.695,32.085 43.75,25.03 43.75,16.335C43.75,7.64 36.695,0.585 28,0.585C19.305,0.585 12.25,7.64 12.25,16.335C12.25,25.03 19.305,32.085 28,32.085ZM42,35.585L35.973,35.585C33.545,36.701 30.844,37.335 28,37.335C25.156,37.335 22.466,36.701 20.027,35.585L14,35.585C6.267,35.585 0,41.852 0,49.585L0,51.335C0,54.233 2.352,56.585 5.25,56.585L50.75,56.585C53.648,56.585 56,54.233 56,51.335L56,49.585C56,41.852 49.733,35.585 42,35.585Z" fill="#000000"/>
</svg>
