<svg width="106" height="86" viewBox="0 0 106 86" fill="none" xmlns="http://www.w3.org/2000/svg" xmlns:xlink="http://www.w3.org/1999/xlink">
<path d="M89.75,75.333L16.25,75.333L16.25,80C16.25,81.238 15.697,82.425 14.712,83.3C13.728,84.175 12.392,84.667 11,84.667L5.75,84.667C4.358,84.667 3.022,84.175 2.038,83.3C1.053,82.425 0.5,81.238 0.5,80L0.5,38L13.693,6.724C14.444,4.945 15.787,3.411 17.544,2.329C19.302,1.246 21.389,0.667 23.526,0.667L82.473,0.667C84.611,0.667 86.698,1.246 88.456,2.329C90.213,3.411 91.556,4.945 92.307,6.724L105.5,38L105.5,80C105.5,81.238 104.947,82.425 103.962,83.3C102.978,84.175 101.642,84.667 100.25,84.667L95,84.667C93.608,84.667 92.272,84.175 91.288,83.3C90.303,82.425 89.75,81.238 89.75,80L89.75,75.333ZM11.714,38L94.286,38L82.473,10L23.526,10L11.714,38ZM24.125,61.333C26.214,61.333 28.217,60.596 29.693,59.283C31.17,57.97 32,56.19 32,54.333C32,52.477 31.17,50.696 29.693,49.384C28.217,48.071 26.214,47.333 24.125,47.333C22.036,47.333 20.033,48.071 18.557,49.384C17.08,50.696 16.25,52.477 16.25,54.333C16.25,56.19 17.08,57.97 18.557,59.283C20.033,60.596 22.036,61.333 24.125,61.333L24.125,61.333ZM81.875,61.333C83.964,61.333 85.967,60.596 87.443,59.283C88.92,57.97 89.75,56.19 89.75,54.333C89.75,52.477 88.92,50.696 87.443,49.384C85.967,48.071 83.964,47.333 81.875,47.333C79.786,47.333 77.783,48.071 76.307,49.384C74.83,50.696 74,52.477 74,54.333C74,56.19 74.83,57.97 76.307,59.283C77.783,60.596 79.786,61.333 81.875,61.333L81.875,61.333Z" fill="#FFFFFF"/>
</svg>
