<svg width="102" height="96" viewBox="0 0 102 96" fill="none" xmlns="http://www.w3.org/2000/svg" xmlns:xlink="http://www.w3.org/1999/xlink">
<path d="M86.143,84.383L15.301,84.383L15.301,89.605C15.301,90.99 14.767,92.318 13.818,93.298C12.87,94.277 11.582,94.827 10.24,94.827L5.18,94.827C3.838,94.827 2.551,94.277 1.602,93.298C0.653,92.318 0.12,90.99 0.12,89.605L0.12,42.608L12.836,7.61C13.56,5.619 14.855,3.903 16.548,2.692C18.242,1.481 20.253,0.832 22.314,0.832L79.129,0.832C81.19,0.832 83.201,1.481 84.895,2.692C86.589,3.903 87.884,5.619 88.607,7.61L101.323,42.608L101.323,89.605C101.323,90.99 100.79,92.318 99.841,93.298C98.892,94.277 97.605,94.827 96.263,94.827L91.203,94.827C89.861,94.827 88.574,94.277 87.625,93.298C86.676,92.318 86.143,90.99 86.143,89.605L86.143,84.383ZM10.929,42.608L90.515,42.608L79.129,11.276L22.314,11.276L10.929,42.608ZM22.891,68.717C24.904,68.717 26.835,67.892 28.258,66.423C29.681,64.954 30.481,62.962 30.481,60.884C30.481,58.807 29.681,56.815 28.258,55.346C26.835,53.877 24.904,53.052 22.891,53.052C20.878,53.052 18.947,53.877 17.524,55.346C16.1,56.815 15.301,58.807 15.301,60.884C15.301,62.962 16.1,64.954 17.524,66.423C18.947,67.892 20.878,68.717 22.891,68.717L22.891,68.717ZM78.552,68.717C80.566,68.717 82.496,67.892 83.92,66.423C85.343,64.954 86.143,62.962 86.143,60.884C86.143,58.807 85.343,56.815 83.92,55.346C82.496,53.877 80.566,53.052 78.552,53.052C76.539,53.052 74.609,53.877 73.185,55.346C71.762,56.815 70.962,58.807 70.962,60.884C70.962,62.962 71.762,64.954 73.185,66.423C74.609,67.892 76.539,68.717 78.552,68.717L78.552,68.717Z" fill="#192342"/>
</svg>
