<svg width="68" height="60" viewBox="0 0 68 60" fill="none" xmlns="http://www.w3.org/2000/svg" xmlns:xlink="http://www.w3.org/1999/xlink">
<path d="M3.818,0.489L63.884,0.489C64.879,0.489 65.834,0.834 66.538,1.448C67.242,2.063 67.638,2.896 67.638,3.765L67.638,56.175C67.638,57.044 67.242,57.877 66.538,58.491C65.834,59.105 64.879,59.451 63.884,59.451L3.818,59.451C2.822,59.451 1.867,59.105 1.163,58.491C0.459,57.877 0.063,57.044 0.063,56.175L0.063,3.765C0.063,2.896 0.459,2.063 1.163,1.448C1.867,0.834 2.822,0.489 3.818,0.489L3.818,0.489ZM30.108,43.072L56.649,19.91L51.341,15.279L30.108,33.809L19.487,24.542L14.179,29.174L30.108,43.072Z" fill="#FFFFFF"/>
</svg>
