<svg width="60" height="60" viewBox="0 0 60 60" fill="none" xmlns="http://www.w3.org/2000/svg" xmlns:xlink="http://www.w3.org/1999/xlink">
<path d="M44,5.858L55.636,5.858C56.407,5.858 57.147,6.165 57.693,6.71C58.239,7.256 58.545,7.996 58.545,8.767L58.545,55.313C58.545,56.084 58.239,56.824 57.693,57.37C57.147,57.915 56.407,58.222 55.636,58.222L3.272,58.222C2.501,58.222 1.761,57.915 1.215,57.37C0.67,56.824 0.363,56.084 0.363,55.313L0.363,8.767C0.363,7.996 0.67,7.256 1.215,6.71C1.761,6.165 2.501,5.858 3.272,5.858L14.909,5.858L14.909,0.04L20.727,0.04L20.727,5.858L38.181,5.858L38.181,0.04L44,0.04L44,5.858ZM38.181,11.676L20.727,11.676L20.727,17.495L14.909,17.495L14.909,11.676L6.181,11.676L6.181,23.313L52.727,23.313L52.727,11.676L44,11.676L44,17.495L38.181,17.495L38.181,11.676ZM52.727,29.131L6.181,29.131L6.181,52.404L52.727,52.404L52.727,29.131Z" fill="#567DF4"/>
</svg>
