<svg width="72" height="66" viewBox="0 0 72 66" fill="none" xmlns="http://www.w3.org/2000/svg" xmlns:xlink="http://www.w3.org/1999/xlink">
<path d="M3.87,-0.857L67.351,-0.857C68.403,-0.857 69.412,-0.466 70.157,0.231C70.901,0.927 71.319,1.872 71.319,2.857L71.319,62.286C71.319,63.271 70.901,64.215 70.157,64.912C69.412,65.609 68.403,66 67.351,66L3.87,66C2.818,66 1.808,65.609 1.064,64.912C0.32,64.215 -0.098,63.271 -0.098,62.286L-0.098,2.857C-0.098,1.872 0.32,0.927 1.064,0.231C1.808,-0.466 2.818,-0.857 3.87,-0.857L3.87,-0.857ZM7.837,6.571L7.837,58.571L63.383,58.571L63.383,6.571L7.837,6.571ZM31.655,47.429L14.82,31.669L20.431,26.417L31.655,36.925L54.095,15.913L59.709,21.165L31.655,47.429Z" fill="#567DF4"/>
</svg>
