<svg width="60" height="48" viewBox="0 0 60 48" fill="none" xmlns="http://www.w3.org/2000/svg" xmlns:xlink="http://www.w3.org/1999/xlink">
<path d="M2.437,0.573L55.534,0.573C56.414,0.573 57.259,0.841 57.881,1.318C58.503,1.795 58.853,2.443 58.853,3.118L58.853,43.839C58.853,44.514 58.503,45.162 57.881,45.639C57.259,46.116 56.414,46.384 55.534,46.384L2.437,46.384C1.557,46.384 0.713,46.116 0.09,45.639C-0.532,45.162 -0.882,44.514 -0.882,43.839L-0.882,3.118C-0.882,2.443 -0.532,1.795 0.09,1.318C0.713,0.841 1.557,0.573 2.437,0.573L2.437,0.573ZM25.677,33.659L49.139,15.663L44.447,12.064L25.677,26.461L16.289,19.261L11.596,22.86L25.677,33.659Z" fill="#FFFFFF"/>
</svg>
