<svg width="88" height="88" viewBox="0 0 88 88" fill="none" xmlns="http://www.w3.org/2000/svg" xmlns:xlink="http://www.w3.org/1999/xlink">
<path d="M86.572,4.128C87.425,2.708 86.964,0.865 85.543,0.012C84.123,-0.84 82.28,-0.379 81.428,1.041L86.572,4.128ZM36,82.585L33.855,84.682L36.573,87.462L38.572,84.128L36,82.585ZM6.145,47.76C4.987,46.576 3.087,46.554 1.903,47.713C0.718,48.871 0.697,50.77 1.855,51.955L6.145,47.76ZM81.428,1.041L33.428,81.042L38.572,84.128L86.572,4.128L81.428,1.041ZM38.145,80.488L6.145,47.76L1.855,51.955L33.855,84.682L38.145,80.488Z" fill="#FFFFFF"/>
</svg>
