<svg width="28" height="26" viewBox="0 0 28 26" fill="none" xmlns="http://www.w3.org/2000/svg" xmlns:xlink="http://www.w3.org/1999/xlink">
<path d="M14.79,0.659C13.963,-0.062 12.669,-0.062 11.842,0.659L1.449,9.721C0.806,10.282 0.441,11.062 0.441,11.878L0.441,22.899C0.441,24.539 1.882,25.868 3.66,25.868L6.879,25.868C8.656,25.868 10.097,24.539 10.097,22.899L10.097,17.952C10.097,17.406 10.578,16.963 11.17,16.963L15.462,16.963C16.054,16.963 16.535,17.406 16.535,17.952L16.535,22.899C16.535,24.539 17.976,25.868 19.754,25.868L22.972,25.868C24.75,25.868 26.191,24.539 26.191,22.899L26.191,11.878C26.191,11.062 25.827,10.282 25.183,9.721L14.79,0.659Z" fill="#FFFFFF"/>
</svg>
