<svg width="56" height="58" viewBox="0 0 56 58" fill="none" xmlns="http://www.w3.org/2000/svg" xmlns:xlink="http://www.w3.org/1999/xlink">
<path d="M54.81,43.86L42.003,31.054C39.477,28.528 35.703,28.035 32.663,29.534L21.004,17.875L21.004,11.084L7.005,0.585L0.005,7.584L10.505,21.583L17.297,21.583L28.955,33.241C27.468,36.282 27.949,40.055 30.476,42.581L43.283,55.387C44.88,56.984 47.461,56.984 49.046,55.387L54.81,49.624C56.396,48.027 56.396,45.446 54.81,43.86ZM36.283,25.192C39.378,25.192 42.287,26.395 44.475,28.582L46.597,30.704C48.325,29.949 49.965,28.899 51.387,27.478C55.445,23.42 56.823,17.711 55.532,12.528C55.291,11.543 54.056,11.204 53.334,11.926L45.197,20.063L37.771,18.827L36.535,11.401L44.672,3.264C45.394,2.543 45.044,1.307 44.048,1.055C38.864,-0.224 33.155,1.154 29.109,5.2C25.992,8.317 24.526,12.429 24.603,16.53L33.582,25.509C34.468,25.301 35.386,25.192 36.283,25.192ZM24.92,34.16L18.718,27.959L2.051,44.637C-0.684,47.371 -0.684,51.8 2.051,54.534C4.785,57.269 9.214,57.269 11.949,54.534L25.467,41.017C24.635,38.841 24.384,36.467 24.92,34.16ZM7.005,52.205C5.561,52.205 4.38,51.024 4.38,49.58C4.38,48.126 5.55,46.955 7.005,46.955C8.46,46.955 9.63,48.126 9.63,49.58C9.63,51.024 8.46,52.205 7.005,52.205Z" fill="#000000"/>
</svg>
