<svg width="28" height="26" viewBox="0 0 28 26" fill="none" xmlns="http://www.w3.org/2000/svg" xmlns:xlink="http://www.w3.org/1999/xlink">
<path d="M14.728,0.006C13.901,-0.715 12.607,-0.715 11.779,0.006L1.386,9.068C0.743,9.629 0.379,10.409 0.379,11.225L0.379,22.246C0.379,23.885 1.82,25.214 3.598,25.214L6.816,25.214C8.594,25.214 10.035,23.885 10.035,22.246L10.035,17.299C10.035,16.752 10.515,16.309 11.108,16.309L15.399,16.309C15.992,16.309 16.472,16.752 16.472,17.299L16.472,22.246C16.472,23.885 17.913,25.214 19.691,25.214L22.91,25.214C24.687,25.214 26.128,23.885 26.128,22.246L26.128,11.225C26.128,10.409 25.764,9.629 25.121,9.068L14.728,0.006Z" fill="#FFFFFF"/>
</svg>
