<svg width="120" height="122" viewBox="0 0 120 122" fill="none" xmlns="http://www.w3.org/2000/svg" xmlns:xlink="http://www.w3.org/1999/xlink">
<path d="M60,0.585C26.855,0.585 0,27.44 0,60.585C0,93.73 26.855,120.585 60,120.585C93.145,120.585 120,93.73 120,60.585C120,27.44 93.145,0.585 60,0.585ZM60,23.811C71.758,23.811 81.29,33.343 81.29,45.101C81.29,56.859 71.758,66.391 60,66.391C48.242,66.391 38.71,56.859 38.71,45.101C38.71,33.343 48.242,23.811 60,23.811ZM60,107.037C45.798,107.037 33.073,100.601 24.556,90.537C29.105,81.972 38.008,76.069 48.387,76.069C48.968,76.069 49.548,76.166 50.105,76.335C53.25,77.351 56.54,78.004 60,78.004C63.46,78.004 66.774,77.351 69.895,76.335C70.452,76.166 71.032,76.069 71.613,76.069C81.992,76.069 90.895,81.972 95.444,90.537C86.927,100.601 74.202,107.037 60,107.037Z" fill="#FFFFFF"/>
</svg>
