<svg width="46" height="48" viewBox="0 0 46 48" fill="none" xmlns="http://www.w3.org/2000/svg" xmlns:xlink="http://www.w3.org/1999/xlink">
<path d="M5.849,4.407L5.849,42.13L37.789,42.13L37.789,4.407L5.849,4.407ZM2.655,-0.309L40.983,-0.309C41.83,-0.309 42.643,-0.061 43.242,0.382C43.841,0.824 44.177,1.423 44.177,2.049L44.177,44.488C44.177,45.113 43.841,45.713 43.242,46.155C42.643,46.597 41.83,46.845 40.983,46.845L2.655,46.845C1.808,46.845 0.995,46.597 0.396,46.155C-0.203,45.713 -0.539,45.113 -0.539,44.488L-0.539,2.049C-0.539,1.423 -0.203,0.824 0.396,0.382C0.995,-0.061 1.808,-0.309 2.655,-0.309ZM21.819,35.057C22.666,35.057 23.479,35.305 24.078,35.747C24.677,36.19 25.013,36.789 25.013,37.415C25.013,38.04 24.677,38.64 24.078,39.082C23.479,39.524 22.666,39.772 21.819,39.772C20.972,39.772 20.16,39.524 19.561,39.082C18.962,38.64 18.625,38.04 18.625,37.415C18.625,36.789 18.962,36.19 19.561,35.747C20.16,35.305 20.972,35.057 21.819,35.057L21.819,35.057Z" fill="#677191"/>
</svg>
