<svg width="70" height="66" viewBox="0 0 70 66" fill="none" xmlns="http://www.w3.org/2000/svg" xmlns:xlink="http://www.w3.org/1999/xlink">
<path d="M3.52,-0.857L65.6,-0.857C66.629,-0.857 67.616,-0.466 68.343,0.231C69.071,0.927 69.48,1.872 69.48,2.857L69.48,62.286C69.48,63.271 69.071,64.215 68.343,64.912C67.616,65.609 66.629,66 65.6,66L3.52,66C2.491,66 1.504,65.609 0.776,64.912C0.048,64.215 -0.36,63.271 -0.36,62.286L-0.36,2.857C-0.36,1.872 0.048,0.927 0.776,0.231C1.504,-0.466 2.491,-0.857 3.52,-0.857L3.52,-0.857ZM7.4,6.571L7.4,58.571L61.72,58.571L61.72,6.571L7.4,6.571ZM30.691,47.429L14.228,31.669L19.715,26.417L30.691,36.925L52.637,15.913L58.127,21.165L30.691,47.429Z" fill="#567DF4"/>
</svg>
