<svg width="28" height="28" viewBox="0 0 28 28" fill="none" xmlns="http://www.w3.org/2000/svg" xmlns:xlink="http://www.w3.org/1999/xlink">
<path d="M14.747,1.169C13.92,0.447 12.626,0.447 11.799,1.169L1.406,10.231C0.763,10.791 0.398,11.572 0.398,12.388L0.398,23.409C0.398,25.048 1.839,26.377 3.617,26.377L6.836,26.377C8.613,26.377 10.054,25.048 10.054,23.409L10.054,18.461C10.054,17.915 10.535,17.472 11.127,17.472L15.419,17.472C16.011,17.472 16.492,17.915 16.492,18.461L16.492,23.409C16.492,25.048 17.933,26.377 19.711,26.377L22.929,26.377C24.707,26.377 26.148,25.048 26.148,23.409L26.148,12.388C26.148,11.572 25.784,10.791 25.14,10.231L14.747,1.169Z" fill="#FFFFFF"/>
</svg>
