<svg width="44" height="50" viewBox="0 0 44 50" fill="none" xmlns="http://www.w3.org/2000/svg" xmlns:xlink="http://www.w3.org/1999/xlink">
<path d="M0.125,44.897C0.125,47.485 2.225,49.585 4.813,49.585L39.187,49.585C41.775,49.585 43.875,47.485 43.875,44.897L43.875,18.335L0.125,18.335L0.125,44.897ZM6.375,26.147C6.375,25.288 7.078,24.585 7.938,24.585L36.063,24.585C36.922,24.585 37.625,25.288 37.625,26.147L37.625,32.397C37.625,33.257 36.922,33.96 36.063,33.96L7.938,33.96C7.078,33.96 6.375,33.257 6.375,32.397L6.375,26.147ZM39.187,5.835L34.5,5.835L34.5,1.147C34.5,0.288 33.797,-0.415 32.937,-0.415L29.813,-0.415C28.953,-0.415 28.25,0.288 28.25,1.147L28.25,5.835L15.75,5.835L15.75,1.147C15.75,0.288 15.047,-0.415 14.188,-0.415L11.063,-0.415C10.203,-0.415 9.5,0.288 9.5,1.147L9.5,5.835L4.813,5.835C2.225,5.835 0.125,7.935 0.125,10.522L0.125,15.21L43.875,15.21L43.875,10.522C43.875,7.935 41.775,5.835 39.187,5.835Z" transform="rotate(0 22 24.585)" fill="#0C41FF"/>
</svg>
