<svg width="56" height="58" viewBox="0 0 56 58" fill="none" xmlns="http://www.w3.org/2000/svg" xmlns:xlink="http://www.w3.org/1999/xlink">
<path d="M54.686,16.918L48.138,16.918L46.318,10.852C44.447,4.614 39.984,0.585 34.945,0.585L21.054,0.585C16.017,0.585 11.552,4.614 9.68,10.852L7.86,16.918L1.313,16.918C0.459,16.918 -0.168,17.989 0.04,19.093L0.696,22.593C0.842,23.371 1.367,23.918 1.969,23.918L4.165,23.918C2.696,25.629 1.75,28.115 1.75,30.918L1.75,37.918C1.75,40.269 2.423,42.391 3.5,44.033L3.5,51.918C3.5,54.495 5.067,56.585 7,56.585L10.5,56.585C12.432,56.585 14,54.495 14,51.918L14,47.252L42,47.252L42,51.918C42,54.495 43.567,56.585 45.5,56.585L49,56.585C50.932,56.585 52.5,54.495 52.5,51.918L52.5,44.033C53.576,42.392 54.25,40.271 54.25,37.918L54.25,30.918C54.25,28.115 53.304,25.629 51.836,23.918L54.031,23.918C54.634,23.918 55.159,23.371 55.304,22.593L55.96,19.093C56.167,17.989 55.54,16.918 54.686,16.918ZM16.179,14.318C16.977,11.661 18.907,9.918 21.054,9.918L34.945,9.918C37.092,9.918 39.022,11.661 39.82,14.318L42,21.585L14,21.585L16.179,14.318ZM10.5,37.889C8.4,37.889 7,36.028 7,33.237C7,30.446 8.4,28.585 10.5,28.585C12.6,28.585 15.75,32.772 15.75,35.563C15.75,38.354 12.6,37.889 10.5,37.889ZM45.5,37.889C43.4,37.889 40.25,38.354 40.25,35.563C40.25,32.772 43.4,28.585 45.5,28.585C47.6,28.585 49,30.446 49,33.237C49,36.028 47.6,37.889 45.5,37.889Z" fill="#000000"/>
</svg>
