<svg width="46" height="48" viewBox="0 0 46 48" fill="none" xmlns="http://www.w3.org/2000/svg" xmlns:xlink="http://www.w3.org/1999/xlink">
<path d="M5.849,4.991L5.849,42.715L37.789,42.715L37.789,4.991L5.849,4.991ZM2.655,0.276L40.983,0.276C41.83,0.276 42.643,0.524 43.242,0.966C43.841,1.409 44.177,2.008 44.177,2.634L44.177,45.073C44.177,45.698 43.841,46.298 43.242,46.74C42.643,47.182 41.83,47.43 40.983,47.43L2.655,47.43C1.808,47.43 0.995,47.182 0.396,46.74C-0.203,46.298 -0.539,45.698 -0.539,45.073L-0.539,2.634C-0.539,2.008 -0.203,1.409 0.396,0.966C0.995,0.524 1.808,0.276 2.655,0.276ZM21.819,35.642C22.666,35.642 23.479,35.89 24.078,36.332C24.677,36.774 25.013,37.374 25.013,37.999C25.013,38.625 24.677,39.224 24.078,39.667C23.479,40.109 22.666,40.357 21.819,40.357C20.972,40.357 20.16,40.109 19.561,39.667C18.962,39.224 18.625,38.625 18.625,37.999C18.625,37.374 18.962,36.774 19.561,36.332C20.16,35.89 20.972,35.642 21.819,35.642L21.819,35.642Z" fill="#677191"/>
</svg>
