<svg width="50" height="54" viewBox="0 0 50 54" fill="none" xmlns="http://www.w3.org/2000/svg" xmlns:xlink="http://www.w3.org/1999/xlink">
<path d="M44.444,21.385L47.222,21.385C47.959,21.385 48.665,21.659 49.186,22.147C49.707,22.634 50,23.295 50,23.985L50,49.985C50,50.675 49.707,51.336 49.186,51.823C48.665,52.311 47.959,52.585 47.222,52.585L2.778,52.585C2.041,52.585 1.335,52.311 0.814,51.823C0.293,51.336 0,50.675 0,49.985L0,23.985C0,23.295 0.293,22.634 0.814,22.147C1.335,21.659 2.041,21.385 2.778,21.385L5.556,21.385L5.556,18.785C5.556,16.395 6.058,14.028 7.036,11.82C8.013,9.612 9.445,7.606 11.251,5.916C13.056,4.226 15.2,2.885 17.559,1.97C19.918,1.056 22.447,0.585 25,0.585C27.553,0.585 30.082,1.056 32.441,1.97C34.8,2.885 36.944,4.226 38.749,5.916C40.555,7.606 41.987,9.612 42.964,11.82C43.941,14.028 44.444,16.395 44.444,18.785L44.444,21.385ZM5.556,26.585L5.556,47.385L44.444,47.385L44.444,26.585L5.556,26.585ZM22.222,31.785L27.778,31.785L27.778,42.185L22.222,42.185L22.222,31.785ZM38.889,21.385L38.889,18.785C38.889,15.337 37.426,12.031 34.821,9.593C32.216,7.155 28.684,5.785 25,5.785C21.316,5.785 17.784,7.155 15.179,9.593C12.574,12.031 11.111,15.337 11.111,18.785L11.111,21.385L38.889,21.385Z" fill="#677191"/>
</svg>
