<svg width="26" height="26" viewBox="0 0 26 26" fill="none" xmlns="http://www.w3.org/2000/svg" xmlns:xlink="http://www.w3.org/1999/xlink">
<path d="M13.861,0.644C13.033,-0.077 11.739,-0.077 10.912,0.644L0.519,9.706C-0.124,10.267 -0.488,11.047 -0.488,11.863L-0.488,22.884C-0.488,24.523 0.953,25.852 2.73,25.852L5.949,25.852C7.727,25.852 9.168,24.523 9.168,22.884L9.168,17.937C9.168,17.39 9.648,16.947 10.241,16.947L14.532,16.947C15.125,16.947 15.605,17.39 15.605,17.937L15.605,22.884C15.605,24.523 17.046,25.852 18.824,25.852L22.043,25.852C23.82,25.852 25.261,24.523 25.261,22.884L25.261,11.863C25.261,11.047 24.897,10.267 24.254,9.706L13.861,0.644Z" fill="#FFFFFF"/>
</svg>
